<?xml version="1.0" encoding="UTF-8" standalone="no"?>
<!DOCTYPE svg PUBLIC "-//W3C//DTD SVG 20010904//EN"
              "http://www.w3.org/TR/2001/REC-SVG-20010904/DTD/svg10.dtd">

<svg xmlns="http://www.w3.org/2000/svg"
     width="8in" height="8in"
     viewBox="0 0 512 512">
  <path id="magnifier"
        fill="#ffffff" stroke="black" stroke-width="40"
        d="M 256.00,64.00
           C 352.00,64.00 448.00,160.00 448.00,256.00
             448.00,352.00 352.00,448.00 256.00,448.00
             160.00,448.00 64.00,352.00 64.00,256.00
             64.00,160.00 160.00,64.00 256.00,64.00 Z
           M 416.00,400.00
           C 432.00,416.00 464.00,448.00 480.00,464.00
             496.00,480.00 480.00,496.00 464.00,480.00
             448.00,464.00 416.00,432.00 400.00,416.00
             384.00,400.00 400.00,384.00 416.00,400.00 Z" />
  <path id="text"
        fill="none" stroke="black" stroke-width="48"
        d="M 160.00,176.00
           C 176.00,176.00 368.00,176.00 352.00,176.00
             336.00,176.00 144.00,176.00 160.00,176.00 Z
           M 160.00,336.00
           C 176.00,336.00 320.00,336.00 304.00,336.00
             288.00,336.00 144.00,336.00 160.00,336.00 Z" />
  <path id="text-mark"
        fill="none" stroke="#0000d0" stroke-width="48"
        d="M 160.00,256.00
           C 176.00,256.00 368.00,256.00 352.00,256.00
             336.00,256.00 144.00,256.00 160.00,256.00 Z" />
</svg>
